<?xml version="1.0" encoding="UTF-8" standalone="no"?>
<!-- Created with Inkscape (http://www.inkscape.org/) -->

<svg
   xmlns:dc="http://purl.org/dc/elements/1.1/"
   xmlns:cc="http://creativecommons.org/ns#"
   xmlns:rdf="http://www.w3.org/1999/02/22-rdf-syntax-ns#"
   xmlns:svg="http://www.w3.org/2000/svg"
   xmlns="http://www.w3.org/2000/svg"
   xmlns:xlink="http://www.w3.org/1999/xlink"
   xmlns:sodipodi="http://sodipodi.sourceforge.net/DTD/sodipodi-0.dtd"
   xmlns:inkscape="http://www.inkscape.org/namespaces/inkscape"
   width="744.09448819"
   height="1052.3622047"
   id="svg2"
   version="1.1"
   inkscape:version="0.48.3.1 r9886"
   sodipodi:docname="jsonviewer.svg">
  <defs
     id="defs4">
    <linearGradient
       id="linearGradient3755">
      <stop
         style="stop-color:#fff7c9;stop-opacity:1;"
         offset="0"
         id="stop3757" />
      <stop
         style="stop-color:#dfdddb;stop-opacity:1;"
         offset="1"
         id="stop3759" />
    </linearGradient>
    <linearGradient
       inkscape:collect="always"
       xlink:href="#linearGradient3755"
       id="linearGradient3769"
       x1="80"
       y1="358.07648"
       x2="582.85718"
       y2="358.07648"
       gradientUnits="userSpaceOnUse"
       gradientTransform="translate(51.428571,40)" />
    <radialGradient
       xlink:href="#linearGradient2762"
       id="radialGradient2662"
       gradientUnits="userSpaceOnUse"
       cx="267.14285"
       cy="288.07648"
       fx="238.57143"
       fy="262.36218"
       r="58.57143" />
    <linearGradient
       id="linearGradient3693">
      <stop
         id="stop3695"
         offset="0"
         stop-color="#00ff0a" />
      <stop
         offset="0.5"
         id="stop3701"
         stop-color="#1e8907" />
      <stop
         id="stop3697"
         offset="1"
         stop-color="#9e470f" />
    </linearGradient>
    <linearGradient
       id="linearGradient2762">
      <stop
         id="stop2764"
         offset="0"
         stop-color="white" />
      <stop
         id="stop2766"
         offset="1"
         stop-opacity="0"
         stop-color="white" />
    </linearGradient>
    <radialGradient
       gradientUnits="userSpaceOnUse"
       r="58.57143"
       fy="262.36218"
       fx="238.57143"
       cy="288.07648"
       cx="267.14285"
       id="radialGradient2768"
       xlink:href="#linearGradient2762" />
    <radialGradient
       r="58.57143"
       fy="262.36218"
       fx="238.57143"
       cy="288.07648"
       cx="267.14285"
       gradientUnits="userSpaceOnUse"
       id="radialGradient1891"
       xlink:href="#linearGradient2762" />
    <radialGradient
       r="58.57143"
       fy="262.36218"
       fx="238.57143"
       cy="288.07648"
       cx="267.14285"
       gradientUnits="userSpaceOnUse"
       id="radialGradient1905"
       xlink:href="#linearGradient2762" />
    <linearGradient
       xlink:href="#linearGradient3260"
       id="linearGradient2392"
       gradientUnits="userSpaceOnUse"
       gradientTransform="matrix(2.1593469,0,0,2.1593469,-147.71133,-109.62654)"
       x1="243.92877"
       y1="128.82451"
       x2="307.98431"
       y2="249.43329" />
    <filter
       id="filter3298">
      <feGaussianBlur
         stdDeviation="1.129531"
         id="feGaussianBlur3300" />
    </filter>
    <linearGradient
       xlink:href="#linearGradient3260"
       id="linearGradient3266"
       x1="286.52643"
       y1="131.16933"
       x2="338.07623"
       y2="267.80109"
       gradientUnits="userSpaceOnUse"
       gradientTransform="translate(71.729958,50.632911)" />
    <linearGradient
       id="linearGradient3260">
      <stop
         offset="0"
         id="stop3262"
         stop-color="#ffffff" />
      <stop
         offset="1"
         id="stop3264"
         stop-opacity="0"
         stop-color="#ffffff" />
    </linearGradient>
    <filter
       color-interpolation-filters="sRGB"
       id="filter3298-6">
      <feGaussianBlur
         stdDeviation="1.129531"
         id="feGaussianBlur3300-8" />
    </filter>
    <linearGradient
       xlink:href="#linearGradient3260-2"
       id="linearGradient2392-8"
       gradientUnits="userSpaceOnUse"
       gradientTransform="matrix(2.1593469,0,0,2.1593469,-147.71133,-109.62654)"
       x1="243.92877"
       y1="128.82451"
       x2="307.98431"
       y2="249.43329" />
    <linearGradient
       id="linearGradient3260-2">
      <stop
         offset="0"
         id="stop3262-7"
         stop-color="#ffffff" />
      <stop
         offset="1"
         id="stop3264-7"
         stop-opacity="0"
         stop-color="#ffffff" />
    </linearGradient>
  </defs>
  <sodipodi:namedview
     id="base"
     pagecolor="#ffffff"
     bordercolor="#666666"
     borderopacity="1.0"
     inkscape:pageopacity="0.0"
     inkscape:pageshadow="2"
     inkscape:zoom="0.35"
     inkscape:cx="-399.28571"
     inkscape:cy="520"
     inkscape:document-units="px"
     inkscape:current-layer="layer2"
     showgrid="false"
     inkscape:window-width="1920"
     inkscape:window-height="1017"
     inkscape:window-x="-30634"
     inkscape:window-y="-32000"
     inkscape:window-maximized="0" />
  <metadata
     id="metadata7">
    <rdf:RDF>
      <cc:Work
         rdf:about="">
        <dc:format>image/svg+xml</dc:format>
        <dc:type
           rdf:resource="http://purl.org/dc/dcmitype/StillImage" />
        <dc:title></dc:title>
      </cc:Work>
    </rdf:RDF>
  </metadata>
  <g
     inkscape:label="Layer 1"
     inkscape:groupmode="layer"
     id="layer1"
     style="display:none">
    <rect
       style="fill:url(#linearGradient3769);fill-opacity:1;stroke:none"
       id="rect2985"
       width="502.85715"
       height="502.85715"
       x="131.42857"
       y="146.6479"
       inkscape:export-filename="C:\Users\Cedric\Documents\GitHub\REST8\Drawings\JsonViewer\FileLogo.png"
       inkscape:export-xdpi="8.948864"
       inkscape:export-ydpi="8.948864" />
  </g>
  <g
     inkscape:groupmode="layer"
     id="layer2"
     inkscape:label="mask">
    <g
       id="g3828"
       transform="matrix(0.71409991,0,0,0.71409991,233.71777,202.42238)"
       inkscape:export-filename="C:\Users\Cedric\Documents\GitHub\REST8\Drawings\JsonViewer\FileLogo.png"
       inkscape:export-xdpi="8.948864"
       inkscape:export-ydpi="8.948864">
      <title
         id="title3830">Layer 1</title>
      <g
         id="layer1-1">
        <path
           d="m 217.68916,4.31868 c -117.76283,0 -213.37047,75.025062 -213.37047,226.52904 0,151.50393 95.607641,322.41748 213.37047,322.41748 117.76287,0 213.30294,-170.91355 213.30294,-322.41748 0,-151.50394 -95.54007,-226.52904 -213.30294,-226.52904 z m -75.50967,195.35347 c 27.78677,0 50.33978,22.55301 50.33978,50.33977 0,27.78669 -22.55301,50.33976 -50.33978,50.33976 -27.7867,0 -50.339768,-22.55307 -50.339768,-50.33976 0,-27.78676 22.553068,-50.33977 50.339768,-50.33977 z m 150.95183,0 c 27.78674,0 50.33975,22.55301 50.33975,50.33977 0,27.78669 -22.55301,50.33976 -50.33975,50.33976 -27.78672,0 -50.27228,-22.55307 -50.27228,-50.33976 0,-27.78676 22.48556,-50.33977 50.27228,-50.33977 z M 183.54448,350.01666 c 4.95428,0 8.97479,4.02051 8.97479,8.97479 0,4.95423 -4.02051,8.9748 -8.97479,8.9748 -4.95421,0 -8.97478,-4.02057 -8.97478,-8.9748 0,-4.95428 4.02057,-8.97479 8.97478,-8.97479 z m 68.28932,0 c 4.95429,0 8.97479,4.02051 8.97479,8.97479 0,4.95423 -4.02051,8.9748 -8.97479,8.9748 -4.95419,0 -8.97476,-4.02057 -8.97476,-8.9748 0,-4.95428 4.02057,-8.97479 8.97476,-8.97479 z m -68.28932,25.16989 c 4.95428,0 8.97479,4.02051 8.97479,8.97479 0,4.95423 -4.02051,8.9748 -8.97479,8.9748 -4.95421,0 -8.97478,-4.02057 -8.97478,-8.9748 0,-4.95428 4.02057,-8.97479 8.97478,-8.97479 z m 68.28932,0 c 4.95429,0 8.97479,4.02051 8.97479,8.97479 0,4.95423 -4.02051,8.9748 -8.97479,8.9748 -4.95419,0 -8.97476,-4.02057 -8.97476,-8.9748 0,-4.95428 4.02057,-8.97479 8.97476,-8.97479 z m -68.28932,25.16989 c 4.95428,0 8.97479,4.02051 8.97479,8.9748 0,4.95422 -4.02051,8.97479 -8.97479,8.97479 -4.95421,0 -8.97478,-4.02057 -8.97478,-8.97479 0,-4.95429 4.02057,-8.9748 8.97478,-8.9748 z m 68.28932,0 c 4.95429,0 8.97479,4.02051 8.97479,8.9748 0,4.95422 -4.02051,8.97479 -8.97479,8.97479 -4.95419,0 -8.97476,-4.02057 -8.97476,-8.97479 0,-4.95429 4.02057,-8.9748 8.97476,-8.9748 z m -68.28932,25.23737 c 4.95428,0 8.97479,4.02051 8.97479,8.97479 0,4.95423 -4.02051,8.97479 -8.97479,8.97479 -4.95421,0 -8.97478,-4.02057 -8.97478,-8.97479 0,-4.95428 4.02057,-8.97479 8.97478,-8.97479 z m 68.28932,0 c 4.95429,0 8.97479,4.02051 8.97479,8.97479 0,4.95423 -4.02051,8.97479 -8.97479,8.97479 -4.95419,0 -8.97476,-4.02057 -8.97476,-8.97479 0,-4.95428 4.02057,-8.97479 8.97476,-8.97479 z"
           id="path3268"
           stroke-miterlimit="4"
           inkscape:connector-curvature="0"
           style="opacity:0.467876;fill:#000000;stroke-width:0.5;stroke-miterlimit:4;filter:url(#filter3298-6)" />
        <path
           d="m 213.30298,0 c 117.76291,0 213.37045,75.02504 213.37045,226.52901 0,151.50392 -95.60754,322.41746 -213.37045,322.41746 C 95.540131,548.94647 0,378.03293 0,226.52901 0,75.02507 95.540131,0 213.30298,0 z m 75.50967,195.35344 c -27.78674,0 -50.33978,22.55301 -50.33978,50.33975 0,27.7867 22.55304,50.3398 50.33978,50.3398 27.78675,0 50.33979,-22.5531 50.33979,-50.3398 0,-27.78674 -22.55304,-50.33975 -50.33979,-50.33975 z m -150.95184,0 c -27.78677,0 -50.339783,22.55301 -50.339783,50.33975 0,27.7867 22.553013,50.3398 50.339783,50.3398 27.78674,0 50.27228,-22.5531 50.27228,-50.3398 0,-27.78674 -22.48554,-50.33975 -50.27228,-50.33975 z M 247.44766,345.698 c -4.95422,0 -8.97479,4.02051 -8.97479,8.97473 0,4.95419 4.02057,8.97479 8.97479,8.97479 4.95429,0 8.9748,-4.0206 8.9748,-8.97479 0,-4.95423 -4.02057,-8.97473 -8.9748,-8.97473 z m -68.28933,0 c -4.95426,0 -8.9748,4.02051 -8.9748,8.97473 0,4.95419 4.02057,8.97479 8.9748,8.97479 4.95422,0 8.97476,-4.0206 8.97476,-8.97479 0,-4.95423 -4.02054,-8.97473 -8.97476,-8.97473 z m 68.28933,25.16986 c -4.95422,0 -8.97479,4.02057 -8.97479,8.97479 0,4.95422 4.02057,8.97479 8.97479,8.97479 4.95429,0 8.9748,-4.02057 8.9748,-8.97479 0,-4.95422 -4.02057,-8.97479 -8.9748,-8.97479 z m -68.28933,0 c -4.95426,0 -8.9748,4.02057 -8.9748,8.97479 0,4.95422 4.02057,8.97479 8.9748,8.97479 4.95422,0 8.97476,-4.02057 8.97476,-8.97479 0,-4.95422 -4.02054,-8.97479 -8.97476,-8.97479 z m 68.28933,25.16986 c -4.95422,0 -8.97479,4.02057 -8.97479,8.97479 0,4.95429 4.02057,8.97479 8.97479,8.97479 4.95429,0 8.9748,-4.02057 8.9748,-8.97479 0,-4.95422 -4.02057,-8.97479 -8.9748,-8.97479 z m -68.28933,0 c -4.95426,0 -8.9748,4.02057 -8.9748,8.97479 0,4.95429 4.02057,8.97479 8.9748,8.97479 4.95422,0 8.97476,-4.02057 8.97476,-8.97479 0,-4.95422 -4.02054,-8.97479 -8.97476,-8.97479 z m 68.28933,25.23737 c -4.95422,0 -8.97479,4.02057 -8.97479,8.97479 0,4.95422 4.02057,8.97476 8.97479,8.97476 4.95429,0 8.9748,-4.02054 8.9748,-8.97476 0,-4.95423 -4.02057,-8.97479 -8.9748,-8.97479 z m -68.28933,0 c -4.95426,0 -8.9748,4.02057 -8.9748,8.97479 0,4.95422 4.02057,8.97476 8.9748,8.97476 4.95422,0 8.97476,-4.02054 8.97476,-8.97476 0,-4.95423 -4.02054,-8.97479 -8.97476,-8.97479 z"
           id="path2386"
           stroke-miterlimit="4"
           inkscape:connector-curvature="0"
           style="fill:#999999;stroke-width:0.5;stroke-miterlimit:4" />
        <path
           d="m 208.44446,0.101212 0,548.744068 C 92.940063,544.19946 0,375.96228 0,226.56273 3.1e-5,77.163071 92.93988,2.156616 208.44446,0.101212 z M 137.86081,195.38716 c -27.78674,0 -50.339784,22.55301 -50.339784,50.33975 3.1e-5,27.78676 22.553014,50.3398 50.339784,50.3398 27.78677,6e-5 50.27228,-22.55304 50.27228,-50.3398 3e-5,-27.78674 -22.48554,-50.33975 -50.27228,-50.33975 z m 41.29752,150.34453 c -4.95423,3e-5 -8.9748,4.02054 -8.9748,8.97479 3e-5,4.95423 4.02057,8.97479 8.9748,8.97479 4.95425,6e-5 8.97476,-4.02057 8.97476,-8.97479 3e-5,-4.95425 -4.02054,-8.97479 -8.97476,-8.97479 z m 0,25.16992 c -4.95423,0 -8.9748,4.02048 -8.9748,8.9747 3e-5,4.95432 4.02057,8.97483 8.9748,8.97483 4.95425,6e-5 8.97476,-4.02051 8.97476,-8.97483 3e-5,-4.95413 -4.02054,-8.9747 -8.97476,-8.9747 z m 0,25.16986 c -4.95423,6e-5 -8.9748,4.02057 -8.9748,8.97479 3e-5,4.95426 4.02057,8.9748 8.9748,8.9748 4.95425,0 8.97476,-4.02057 8.97476,-8.9748 3e-5,-4.95422 -4.02054,-8.97479 -8.97476,-8.97479 z m 0,25.23737 c -4.95423,0 -8.9748,4.02057 -8.9748,8.97479 3e-5,4.95423 4.02057,8.97479 8.9748,8.97479 4.95425,0 8.97476,-4.02057 8.97476,-8.97479 3e-5,-4.95422 -4.02054,-8.97479 -8.97476,-8.97479 z"
           id="path3245"
           stroke-miterlimit="4"
           inkscape:connector-curvature="0"
           style="fill:#b3b3b3;stroke-width:0.5;stroke-miterlimit:4" />
        <path
           d="M 206.47305,10.809845 C 136.13724,11.1604 63.776306,49.773819 33.995209,114.99834 9.169709,165.81792 6.507691,224.50276 13.751343,279.78351 c 22.904938,-4.07996 48.155731,-8.53858 68.491791,-17.07233 -10.953491,-37.07652 23.149716,-78.96361 62.148686,-73.7552 14.53326,1.21295 28.15496,7.98083 38.19345,18.48941 64.51025,-45.84909 146.70785,-57.91409 224.30215,-56.41297 6.89264,2.07447 -0.9024,-8.09561 -0.6073,-10.93167 C 385.21835,72.793656 323.7471,22.412628 253.87216,13.699539 238.284,11.17749 222.35294,10.423614 206.47305,10.809845 z"
           id="path3251"
           stroke-miterlimit="4"
           inkscape:connector-curvature="0"
           style="fill:url(#linearGradient2392-8);stroke-width:0.5;stroke-miterlimit:4" />
      </g>
    </g>
  </g>
</svg>
